<?xml version="1.0" encoding="UTF-8"?>
<svg version="1.1" xmlns="http://www.w3.org/2000/svg" width="174" height="171">
<path d="M0 0 C57.42 0 114.84 0 174 0 C174 56.43 174 112.86 174 171 C116.58 171 59.16 171 0 171 C0 114.57 0 58.14 0 0 Z " fill="#030303" transform="translate(0,0)"/>
<path d="M0 0 C1.7015625 0.86625 1.7015625 0.86625 3.4375 1.75 C4.09492187 2.01683594 4.75234375 2.28367188 5.4296875 2.55859375 C7.375 3.4375 7.375 3.4375 10.4375 5.75 C11.23409365 8.77705585 11.46762317 10.70253924 11.4375 13.75 C11.45683594 15.21759766 11.45683594 15.21759766 11.4765625 16.71484375 C11.49725765 19.39486556 11.481832 22.07037708 11.4375 24.75 C10.7775 24.75 10.1175 24.75 9.4375 24.75 C9.33953125 24.09773438 9.2415625 23.44546875 9.140625 22.7734375 C7.63734637 13.98703309 4.45126512 9.12224563 -2.5625 3.75 C-7.4458896 0.49440693 -12.84973358 1.30261468 -18.5625 1.75 C-23.16605322 2.81896066 -26.04626854 4.71535301 -28.5625 8.75 C-29.68656356 13.39287122 -29.31751753 17.33827452 -27.0625 21.5546875 C-24.76487296 24.85752637 -22.40841416 27.90408584 -19.5625 30.75 C-17.55492182 30.46585047 -15.55622015 30.11904075 -13.5625 29.75 C-10.43755884 29.54747072 -7.31829533 29.51969054 -4.1875 29.5 C-2.96933594 29.4690625 -2.96933594 29.4690625 -1.7265625 29.4375 C6.14744497 29.38702559 12.06497323 31.65582092 18.75 35.75 C19.57113281 36.245 20.39226562 36.74 21.23828125 37.25 C24.93600786 39.77207286 24.93600786 39.77207286 26.4375 41.75 C26.73046875 44.01171875 26.73046875 44.01171875 26.625 46.4375 C26.58439453 47.64986328 26.58439453 47.64986328 26.54296875 48.88671875 C26.50816406 49.50160156 26.47335938 50.11648437 26.4375 50.75 C25.7775 50.75 25.1175 50.75 24.4375 50.75 C23.50523933 49.22097374 22.64198018 47.64963386 21.8125 46.0625 C18.12292701 39.71571629 14.12152656 37.0143943 7.2734375 34.6640625 C2.80726159 33.59982099 -1.42717472 33.30186995 -6 33.125 C-6.82693359 33.08632812 -7.65386719 33.04765625 -8.50585938 33.0078125 C-10.52441073 32.91446908 -12.54342331 32.83119039 -14.5625 32.75 C-13.03389643 35.80720714 -10.66596165 35.94659848 -7.5 37.0625 C-1.99600037 39.11524577 2.62534685 41.42991077 7.4375 44.75 C8.19933594 45.224375 8.96117187 45.69875 9.74609375 46.1875 C16.72224261 50.58625396 21.16503328 54.54719252 23.4375 62.75 C24.12403725 70.0165956 24.03022558 76.31303333 20.4375 82.75 C20.1075 82.75 19.7775 82.75 19.4375 82.75 C19.48390625 81.8321875 19.5303125 80.914375 19.578125 79.96875 C19.83278951 71.31015678 19.65590841 65.48556905 13.8125 58.92578125 C6.12286055 51.54052336 -4.10804198 47.79115277 -13.87109375 43.92578125 C-16.5625 42.75 -16.5625 42.75 -19.20703125 41.06640625 C-21.60236359 39.39597408 -21.60236359 39.39597408 -24.8125 40.375 C-26.17375 41.055625 -26.17375 41.055625 -27.5625 41.75 C-27.8925 42.74 -28.2225 43.73 -28.5625 44.75 C-27.59570312 45.04132813 -26.62890625 45.33265625 -25.6328125 45.6328125 C-17.58144172 48.13766038 -10.59834928 50.99318288 -3.5625 55.75 C-2.49 56.41 -1.4175 57.07 -0.3125 57.75 C7.77953655 63.63511749 7.77953655 63.63511749 9.3125 68.5625 C9.35375 69.614375 9.395 70.66625 9.4375 71.75 C9.48648438 72.45382813 9.53546875 73.15765625 9.5859375 73.8828125 C9.82327103 79.26845792 9.0421117 82.8912937 6.4375 87.75 C4.27392622 89.63995362 2.38603693 91.11073299 0 92.625 C-0.57298828 93.01429688 -1.14597656 93.40359375 -1.73632812 93.8046875 C-9.54901972 98.98318044 -18.46922225 98.52824371 -27.5625 97.75 C-36.5239428 95.85012835 -43.46545277 90.26878484 -48.4375 82.6875 C-52.6220537 75.31874045 -53.75691845 68.38667336 -51.9921875 60.05859375 C-50.73908123 55.63315002 -49.39347484 51.44257587 -46.5625 47.75 C-45.9025 47.75 -45.2425 47.75 -44.5625 47.75 C-45.0575 48.905 -45.5525 50.06 -46.0625 51.25 C-49.2097787 60.9821191 -49.10370432 71.17246679 -44.5625 80.375 C-41.43711229 85.9411063 -38.19438752 89.73084381 -32.5625 92.75 C-31.98242188 93.11996094 -31.40234375 93.48992187 -30.8046875 93.87109375 C-27.53818682 95.15151649 -24.33292017 95.0898036 -20.875 95.0625 C-20.16182617 95.05831055 -19.44865234 95.05412109 -18.71386719 95.04980469 C-12.08188945 94.9080571 -6.54032029 93.96427662 -1.125 89.9375 C2.35059577 85.07166593 3.34054971 79.60223122 2.4375 73.75 C-0.27708683 67.73069878 -4.86148546 65.50305403 -10.5625 62.75 C-10.5625 62.09 -10.5625 61.43 -10.5625 60.75 C-11.490625 60.5025 -12.41875 60.255 -13.375 60 C-26.19153226 56.33064516 -26.19153226 56.33064516 -31.5625 52.75 C-32.8825 52.75 -34.2025 52.75 -35.5625 52.75 C-37.85932018 60.24200867 -36.98079062 69.12668793 -35.5625 76.75 C-36.2225 76.75 -36.8825 76.75 -37.5625 76.75 C-39.66181894 72.46805581 -39.86498898 68.55526701 -39.8125 63.875 C-39.82023437 63.19308594 -39.82796875 62.51117188 -39.8359375 61.80859375 C-39.82196065 58.13967138 -39.49920332 55.55441122 -38.34765625 51.99609375 C-37.1933648 48.82542099 -37.1933648 48.82542099 -38.79296875 46.52734375 C-39.76169922 45.61662109 -39.76169922 45.61662109 -40.75 44.6875 C-44.8388588 40.74853826 -47.25009146 37.15076111 -47.99609375 31.41796875 C-48.00509176 23.40073815 -47.66603842 16.10817326 -41.92578125 10.01171875 C-41.47589844 9.59535156 -41.02601562 9.17898437 -40.5625 8.75 C-41.08518466 11.51276177 -41.67119587 14.0760876 -42.5625 16.75 C-43.30615764 24.18657641 -42.55582531 30.33931054 -38.5625 36.75 C-36.69619312 38.88714297 -35.78146301 39.67336295 -33.0625 40.625 C-30.50428882 41.02849172 -30.50428882 41.02849172 -28.75 39.3125 C-28.358125 38.796875 -27.96625 38.28125 -27.5625 37.75 C-29.13026268 33.43865263 -31.25359024 29.69749088 -33.5625 25.75 C-35.55606669 21.76286661 -35.07792336 17.08424191 -34.5625 12.75 C-32.35194187 7.07115238 -28.43578324 3.24605102 -23.5625 -0.25 C-16.860916 -2.48386133 -6.63473219 -2.41262989 0 0 Z " fill="#EFEFEF" transform="translate(98.5625,39.25)"/>
<path d="M0 0 C1.7015625 0.86625 1.7015625 0.86625 3.4375 1.75 C4.09492187 2.01683594 4.75234375 2.28367188 5.4296875 2.55859375 C7.375 3.4375 7.375 3.4375 10.4375 5.75 C11.23409365 8.77705585 11.46762317 10.70253924 11.4375 13.75 C11.45039062 14.72839844 11.46328125 15.70679687 11.4765625 16.71484375 C11.49725765 19.39486556 11.481832 22.07037708 11.4375 24.75 C10.7775 24.75 10.1175 24.75 9.4375 24.75 C9.33953125 24.09773438 9.2415625 23.44546875 9.140625 22.7734375 C7.63734637 13.98703309 4.45126512 9.12224563 -2.5625 3.75 C-7.4458896 0.49440693 -12.84973358 1.30261468 -18.5625 1.75 C-23.16605322 2.81896066 -26.04626854 4.71535301 -28.5625 8.75 C-29.68656356 13.39287122 -29.31751753 17.33827452 -27.0625 21.5546875 C-24.76487296 24.85752637 -22.40841416 27.90408584 -19.5625 30.75 C-17.55492182 30.46585047 -15.55622015 30.11904075 -13.5625 29.75 C-10.43755884 29.54747072 -7.31829533 29.51969054 -4.1875 29.5 C-2.96933594 29.4690625 -2.96933594 29.4690625 -1.7265625 29.4375 C6.14744497 29.38702559 12.06497323 31.65582092 18.75 35.75 C19.57113281 36.245 20.39226562 36.74 21.23828125 37.25 C24.93600786 39.77207286 24.93600786 39.77207286 26.4375 41.75 C26.73046875 44.01171875 26.73046875 44.01171875 26.625 46.4375 C26.58439453 47.64986328 26.58439453 47.64986328 26.54296875 48.88671875 C26.50816406 49.50160156 26.47335938 50.11648437 26.4375 50.75 C25.7775 50.75 25.1175 50.75 24.4375 50.75 C23.50523933 49.22097374 22.64198018 47.64963386 21.8125 46.0625 C18.12292701 39.71571629 14.12152656 37.0143943 7.2734375 34.6640625 C2.80726159 33.59982099 -1.42717472 33.30186995 -6 33.125 C-6.82693359 33.08632812 -7.65386719 33.04765625 -8.50585938 33.0078125 C-10.52441073 32.91446908 -12.54342331 32.83119039 -14.5625 32.75 C-13.03389643 35.80720714 -10.66596165 35.94659848 -7.5 37.0625 C-1.99600037 39.11524577 2.62534685 41.42991077 7.4375 44.75 C8.19933594 45.224375 8.96117187 45.69875 9.74609375 46.1875 C16.72224261 50.58625396 21.16503328 54.54719252 23.4375 62.75 C24.12403725 70.0165956 24.03022558 76.31303333 20.4375 82.75 C20.1075 82.75 19.7775 82.75 19.4375 82.75 C19.48390625 81.8321875 19.5303125 80.914375 19.578125 79.96875 C19.83278951 71.31015678 19.65590841 65.48556905 13.8125 58.92578125 C6.12286055 51.54052336 -4.10804198 47.79115277 -13.87109375 43.92578125 C-16.5625 42.75 -16.5625 42.75 -19.21484375 41.06640625 C-21.58590552 39.40224529 -21.58590552 39.40224529 -24.6875 40.375 C-27.27323288 41.61165486 -28.77058651 42.55988352 -30.5625 44.75 C-31.8825 43.43 -33.2025 42.11 -34.5625 40.75 C-33.77875 40.6675 -32.995 40.585 -32.1875 40.5 C-29.41500896 40.02193661 -29.41500896 40.02193661 -28.25 37.6875 C-28.023125 37.048125 -27.79625 36.40875 -27.5625 35.75 C-28.34625 34.698125 -29.13 33.64625 -29.9375 32.5625 C-34.56145366 26.35666746 -35.59838813 20.36431169 -34.5625 12.75 C-32.33103247 7.07077149 -28.4449328 3.25261483 -23.5625 -0.25 C-16.860916 -2.48386133 -6.63473219 -2.41262989 0 0 Z " fill="#ECECEC" transform="translate(98.5625,39.25)"/>
<path d="M0 0 C0.66 0 1.32 0 2 0 C1.505 1.155 1.01 2.31 0.5 3.5 C-2.6472787 13.2321191 -2.54120432 23.42246679 2 32.625 C5.12538771 38.1911063 8.36811248 41.98084381 14 45 C14.57621094 45.37253906 15.15242188 45.74507812 15.74609375 46.12890625 C19.07758492 47.41646696 22.35844924 47.24879767 25.875 47.1875 C26.91720703 47.1865332 26.91720703 47.1865332 27.98046875 47.18554688 C32.08351936 47.15077526 35.97498789 46.78859955 40 46 C40 46.99 40 47.98 40 49 C31.41850819 51.7631505 19.23220008 51.24615565 11.140625 47.32421875 C3.30201822 42.47515361 -1.5176243 36.43758487 -5.3125 28.125 C-7.36059704 18.81546799 -5.66231787 10.32463574 -1.4375 1.875 C-0.963125 1.25625 -0.48875 0.6375 0 0 Z " fill="#D7D7D7" transform="translate(52,87)"/>
<path d="M0 0 C0.81662109 -0.01611328 1.63324219 -0.03222656 2.47460938 -0.04882812 C10.35202456 -0.05510495 16.31186021 2.21641439 23 6.3125 C23.82113281 6.8075 24.64226562 7.3025 25.48828125 7.8125 C29.18600786 10.33457286 29.18600786 10.33457286 30.6875 12.3125 C30.98046875 14.57421875 30.98046875 14.57421875 30.875 17 C30.83439453 18.21236328 30.83439453 18.21236328 30.79296875 19.44921875 C30.75816406 20.06410156 30.72335938 20.67898437 30.6875 21.3125 C30.0275 21.3125 29.3675 21.3125 28.6875 21.3125 C27.75523933 19.78347374 26.89198018 18.21213386 26.0625 16.625 C22.37292701 10.27821629 18.37152656 7.5768943 11.5234375 5.2265625 C7.05726159 4.16232099 2.82282528 3.86436995 -1.75 3.6875 C-2.99040039 3.62949219 -2.99040039 3.62949219 -4.25585938 3.5703125 C-6.27441073 3.47696908 -8.29342331 3.39369039 -10.3125 3.3125 C-10.6425 3.9725 -10.9725 4.6325 -11.3125 5.3125 C-11.3125 4.6525 -11.3125 3.9925 -11.3125 3.3125 C-12.3025 2.9825 -13.2925 2.6525 -14.3125 2.3125 C-9.58630536 -0.1035384 -5.1809152 -0.0201592 0 0 Z " fill="#DDDDDD" transform="translate(94.3125,68.6875)"/>
<path d="M0 0 C0.70890381 0.00870117 1.41780762 0.01740234 2.14819336 0.02636719 C7.54822754 0.17800815 11.34068205 0.93934722 16.125 3.375 C16.78242187 3.64183594 17.43984375 3.90867188 18.1171875 4.18359375 C20.0625 5.0625 20.0625 5.0625 23.125 7.375 C23.92159365 10.40205585 24.15512317 12.32753924 24.125 15.375 C24.13789062 16.35339844 24.15078125 17.33179687 24.1640625 18.33984375 C24.18475765 21.01986556 24.169332 23.69537708 24.125 26.375 C23.465 26.375 22.805 26.375 22.125 26.375 C22.02703125 25.72273438 21.9290625 25.07046875 21.828125 24.3984375 C20.32484637 15.61203309 17.13876512 10.74724563 10.125 5.375 C6.58830969 3.01720646 4.99943306 3.10568312 0.8125 3.125 C-0.29738281 3.11984375 -1.40726563 3.1146875 -2.55078125 3.109375 C-5.9546616 3.38136544 -8.69511732 4.16269979 -11.875 5.375 C-12.535 4.715 -13.195 4.055 -13.875 3.375 C-9.20331337 0.62438077 -5.33423623 -0.10851433 0 0 Z " fill="#EEEEEE" transform="translate(85.875,37.625)"/>
<path d="M0 0 C0.825 -0.00773437 1.65 -0.01546875 2.5 -0.0234375 C7.58868373 -0.00728295 11.80427081 0.61277122 16.625 2.25 C15.635 3.735 15.635 3.735 14.625 5.25 C13.66464844 5.09660156 12.70429687 4.94320312 11.71484375 4.78515625 C7.21896353 4.14288765 2.72048428 3.91031389 -1.8125 3.6875 C-2.63943359 3.64431641 -3.46636719 3.60113281 -4.31835938 3.55664062 C-6.33709549 3.45161967 -8.35602951 3.35041441 -10.375 3.25 C-10.705 3.91 -11.035 4.57 -11.375 5.25 C-11.375 4.59 -11.375 3.93 -11.375 3.25 C-12.365 2.92 -13.355 2.59 -14.375 2.25 C-9.63006756 -0.19025097 -5.20233511 -0.0483189 0 0 Z " fill="#C9C9C9" transform="translate(94.375,68.75)"/>
<path d="M0 0 C1.69921875 0.99609375 1.69921875 0.99609375 3.6875 2.4375 C11.58320039 7.1255721 22.3075231 5.64927244 31 4 C31 4.99 31 5.98 31 7 C22.06254683 9.87776634 10.3240777 9.00624439 1.8828125 5.16796875 C-0.04712493 3.9707669 -1.47443459 2.67428405 -3 1 C-2.01 0.67 -1.02 0.34 0 0 Z " fill="#AFAFAF" transform="translate(61,129)"/>
<path d="M0 0 C1.32 0.66 2.64 1.32 4 2 C3.01 2.66 2.02 3.32 1 4 C-1.75508567 11.01438477 -0.35383317 20.72314668 1 28 C0.34 28 -0.32 28 -1 28 C-3.08706809 23.72608367 -3.33433478 19.7976435 -3.3125 15.125 C-3.32861328 14.44308594 -3.34472656 13.76117188 -3.36132812 13.05859375 C-3.36613374 8.01269757 -2.2362765 4.51975673 0 0 Z " fill="#959595" transform="translate(62,88)"/>
<path d="M0 0 C0.67740234 -0.00322266 1.35480469 -0.00644531 2.05273438 -0.00976562 C6.76248556 0.03990577 10.63530487 0.86370472 15.0625 2.3125 C14.0725 3.3025 13.0825 4.2925 12.0625 5.3125 C11.02416016 4.82523438 11.02416016 4.82523438 9.96484375 4.328125 C6.68145405 3.17915956 4.0966424 3.04614362 0.625 3.0625 C-0.46683594 3.05734375 -1.55867188 3.0521875 -2.68359375 3.046875 C-6.05451578 3.32205231 -8.78625625 4.11474219 -11.9375 5.3125 C-12.5975 4.6525 -13.2575 3.9925 -13.9375 3.3125 C-9.22985351 0.52903975 -5.36979112 -0.12700547 0 0 Z " fill="#B3B3B3" transform="translate(85.9375,37.6875)"/>
<path d="M0 0 C0.33 0 0.66 0 1 0 C1.125 7.625 1.125 7.625 0 11 C1.32 10.67 2.64 10.34 4 10 C2.70439388 13.88681835 0.90843632 14.85421182 -2.375 17.25 C-3.84066406 18.34054688 -3.84066406 18.34054688 -5.3359375 19.453125 C-6.21507813 19.96359375 -7.09421875 20.4740625 -8 21 C-8.99 20.67 -9.98 20.34 -11 20 C-10.16855469 19.34644531 -10.16855469 19.34644531 -9.3203125 18.6796875 C-2.45578229 13.03660395 -1.0566847 8.80570585 0 0 Z " fill="#BEBEBE" transform="translate(102,114)"/>
<path d="M0 0 C1.2406987 3.72209609 0.4506902 4.47616033 -1 8 C-1.2759478 9.92903132 -1.48449903 11.8689032 -1.625 13.8125 C-1.69976562 14.78832031 -1.77453125 15.76414062 -1.8515625 16.76953125 C-1.90054688 17.50558594 -1.94953125 18.24164063 -2 19 C-2.33 19 -2.66 19 -3 19 C-3.33 17.02 -3.66 15.04 -4 13 C-4.33 17.29 -4.66 21.58 -5 26 C-5.33 26 -5.66 26 -6 26 C-6.53160464 15.6189427 -5.76677682 8.65016523 0 0 Z " fill="#999999" transform="translate(57,48)"/>
<path d="M0 0 C3.63435641 3.63435641 3.19210386 7.46347706 3.25 12.375 C3.27578125 13.68210937 3.3015625 14.98921875 3.328125 16.3359375 C2.98913959 20.12127454 2.22025401 21.97344322 0 25 C-0.5625 23.0625 -0.5625 23.0625 -1 21 C-0.67 20.67 -0.34 20.34 0 20 C0.08669432 18.5112814 0.10703494 17.018555 0.09765625 15.52734375 C0.09443359 14.62822266 0.09121094 13.72910156 0.08789062 12.80273438 C0.07951172 11.85720703 0.07113281 10.91167969 0.0625 9.9375 C0.05798828 8.98810547 0.05347656 8.03871094 0.04882812 7.06054688 C0.0370011 4.70696935 0.02052025 2.35351523 0 0 Z " fill="#5F5F5F" transform="translate(116,103)"/>
<path d="M0 0 C0.66 0 1.32 0 2 0 C1.79503906 0.51046875 1.59007812 1.0209375 1.37890625 1.546875 C-1.00969811 7.99267815 -1.66435121 14.1597091 -2 21 C-2.33 21 -2.66 21 -3 21 C-3 18.36 -3 15.72 -3 13 C-3.66 13 -4.32 13 -5 13 C-3.024 4.032 -3.024 4.032 0 0 Z " fill="#C5C5C5" transform="translate(52,87)"/>
<path d="M0 0 C1.32 0.33 2.64 0.66 4 1 C4 1.99 4 2.98 4 4 C4.66 4.33 5.32 4.66 6 5 C4.576875 5.928125 4.576875 5.928125 3.125 6.875 C0.05554891 8.81970969 0.05554891 8.81970969 -2 11 C-3.32 9.68 -4.64 8.36 -6 7 C-4.824375 6.87625 -4.824375 6.87625 -3.625 6.75 C-0.88259887 6.26227992 -0.88259887 6.26227992 0.375 4.0625 C1.26871235 1.964604 1.26871235 1.964604 0 0 Z " fill="#999999" transform="translate(70,73)"/>
<path d="M0 0 C0 0.66 0 1.32 0 2 C-5.85927818 3.67407948 -12.10985609 3.52003714 -18 2 C-18 1.67 -18 1.34 -18 1 C-15.37583048 0.63835477 -12.75099687 0.28538847 -10.125 -0.0625 C-9.37863281 -0.16626953 -8.63226563 -0.27003906 -7.86328125 -0.37695312 C-2.2265625 -1.11328125 -2.2265625 -1.11328125 0 0 Z " fill="#6C6C6C" transform="translate(92,134)"/>
<path d="M0 0 C1.11084961 0.15662109 1.11084961 0.15662109 2.24414062 0.31640625 C4.06030085 0.57418383 5.87417304 0.84799353 7.6875 1.125 C7.6875 1.455 7.6875 1.785 7.6875 2.125 C2.0775 2.125 -3.5325 2.125 -9.3125 2.125 C-9.6425 2.785 -9.9725 3.445 -10.3125 4.125 C-10.3125 3.465 -10.3125 2.805 -10.3125 2.125 C-11.3025 1.795 -12.2925 1.465 -13.3125 1.125 C-8.76170706 -1.2984992 -4.90970441 -0.76343929 0 0 Z " fill="#888888" transform="translate(93.3125,69.875)"/>
<path d="M0 0 C0.33 0 0.66 0 1 0 C1.96205088 6.37358711 2.10655578 12.55929529 2 19 C1.34 19 0.68 19 0 19 C-0.95494281 12.42150508 -0.8931507 6.58183362 0 0 Z " fill="#ABABAB" transform="translate(108,45)"/>
<path d="M0 0 C0 0.33 0 0.66 0 1 C-0.91523437 1.13277344 -1.83046875 1.26554687 -2.7734375 1.40234375 C-3.96195313 1.57894531 -5.15046875 1.75554688 -6.375 1.9375 C-7.55835937 2.11152344 -8.74171875 2.28554688 -9.9609375 2.46484375 C-12.90702381 2.83462786 -12.90702381 2.83462786 -15 4 C-15.66 3.34 -16.32 2.68 -17 2 C-11.31145078 -1.84361434 -6.45574131 -0.95342799 0 0 Z " fill="#828282" transform="translate(89,39)"/>
<path d="M0 0 C0.33 0 0.66 0 1 0 C1.66 5.61 2.32 11.22 3 17 C2.34 17 1.68 17 1 17 C-1.20927172 11.02197063 -0.93213141 6.26039609 0 0 Z " fill="#575757" transform="translate(60,99)"/>
<path d="M0 0 C3.37503669 1.1858237 5.64722731 2.27573689 8 5 C7.67 5.66 7.34 6.32 7 7 C3.42895561 5.12050295 1.45255699 3.82946843 0 0 Z " fill="#EBEBEB" transform="translate(53,124)"/>
<path d="M0 0 C0.66 0 1.32 0 2 0 C1.01 2.97 0.02 5.94 -1 9 C-1.66 7.68 -2.32 6.36 -3 5 C-1.75 2.25 -1.75 2.25 0 0 Z " fill="#959595" transform="translate(52,87)"/>
</svg>
